<svg xmlns="http://www.w3.org/2000/svg" viewBox="0 0 101.36 84.33"><defs><style>.cls-1,.cls-9{fill:#fff;}.cls-1,.cls-5,.cls-8{stroke:#040000;}.cls-1,.cls-4,.cls-5,.cls-6{stroke-linecap:round;}.cls-1,.cls-10,.cls-4,.cls-5,.cls-6,.cls-7,.cls-8{stroke-miterlimit:10;}.cls-1,.cls-4,.cls-5{stroke-width:3px;}.cls-2{fill:#f2a1af;}.cls-3{fill:#ed7b8a;}.cls-4,.cls-5{fill:none;}.cls-4{stroke:#040001;}.cls-10,.cls-6,.cls-7,.cls-8{fill:#040000;}.cls-6,.cls-7{stroke:#040306;}.cls-10{stroke:#040204;}.cls-11{fill:#b1deec;}</style></defs><title>资源 1</title><g id="图层_2" data-name="图层 2"><g id="图层_1-2" data-name="图层 1"><path class="cls-1" d="M16.15,18.19C9.63,23.18-7,38.46,6.88,64.8c.08.15.17.29.24.44,1.2,2.55,13.17,18,43.9,17.58,32.18-.48,43.84-15,48-28.84,3.7-12.42-5.1-28.24-14.77-35.46a3.21,3.21,0,0,1-.74-4.37c1.72-2.5,3-6.6-.58-9.85C77.2-.94,71.17,8.51,71.17,8.51c.18,1.67-20.89-6.92-38.34.93A3.27,3.27,0,0,1,28.28,7c-.48-2.71-2-5.53-6-5.48a6.21,6.21,0,0,0-3.25,1c-1.94,1.24-7.11,3.91-2.14,11.24A3.26,3.26,0,0,1,16.15,18.19Z"/><path class="cls-2" d="M67.57,56.62s2.7-9.53,12.76-6.11c0,0,10.36,4.36,3.1,11.51,0,0-5.91,4.25-13.06-.42C70.37,61.6,68.09,61.08,67.57,56.62Z"/><path class="cls-3" d="M70.22,57.24s2-7,9.31-4.46c0,0,7.56,3.18,2.27,8.4a8.58,8.58,0,0,1-9.54-.31S70.59,60.49,70.22,57.24Z"/><path class="cls-4" d="M82,55.2s-2.8,4.45-2.49,5.49"/><path class="cls-4" d="M77.73,54.58s-2.49,3.73-2.08,4.36"/><path class="cls-4" d="M73.61,54s-1.56,4-2.18,4.36"/><path class="cls-2" d="M14.69,58.07s2.69,9.54,12.75,6.12c0,0,10.37-4.35,3.11-11.5,0,0-5.9-4.26-13.06.4C17.49,53.09,15.21,53.61,14.69,58.07Z"/><path class="cls-3" d="M17.34,57.46s2,7,9.3,4.47c0,0,7.57-3.18,2.28-8.4a8.56,8.56,0,0,0-9.54.3S17.72,54.2,17.34,57.46Z"/><path class="cls-5" d="M29.08,59.51s-2.8-4.46-2.49-5.5"/><path class="cls-5" d="M24.85,60.12s-2.49-3.73-2.07-4.36"/><path class="cls-5" d="M20.72,60.74s-1.55-4-2.17-4.35"/><path class="cls-6" d="M28.29,22.36a.66.66,0,0,0,.15.82,1.91,1.91,0,0,0,2.55.13c.23,0,.42-.15.53,0s.36,4.7,4.14,4.78h.13c.48-.08,3.33-.61,4.59-2.48a.65.65,0,0,0-.08-.84,2,2,0,0,0-2-.6,1,1,0,0,0-.18.09,8.63,8.63,0,0,0-1.62,1.44c-.44.63-1.09.08-1.09.08s-.55-.46-.55-2.24a.66.66,0,0,0-.15-.42,8.6,8.6,0,0,0-1.85-1.75.7.7,0,0,0-.35-.12C31.74,21.19,29,21.18,28.29,22.36Z"/><path class="cls-7" d="M42.38,26.9s-.28-2,.75-2.09a1.78,1.78,0,0,1,1.62,1.05c0,.08,0,1.65-1.2,2C43.55,27.87,43,28.24,42.38,26.9Z"/><path class="cls-7" d="M58.92,24.79a3.25,3.25,0,0,1,1.25-.21.73.73,0,0,1,.45.19,1.79,1.79,0,0,0,.24.21.69.69,0,0,0,1-.08c.66-.76,2.15-2.27,3.66-2.18,0,0,2.67.13,3.79,1.45A.7.7,0,0,1,69,25.3a3.89,3.89,0,0,1-1,.13.75.75,0,0,1-.38-.1c-.35-.22-1.15-.69-1.39-.63S63,27.78,62.66,27.88a3.33,3.33,0,0,1-4.17-2.23A.69.69,0,0,1,58.92,24.79Z"/><path class="cls-8" d="M26.85,38.48s-.18-6.14,7.35-6.29c0,0,8.18-.25,7.21,7.84,0,0-.22,5.33-8.18,5.64C33.29,45.51,26.75,45.85,26.85,38.48Z"/><path class="cls-9" d="M31.8,40.22A.89.89,0,0,0,33,40.08a3.52,3.52,0,0,1,.71-.72c.14,0,1.35-.53,1.46-.49s.88,1.19,1.21,1.25.94-.88,1.27-1.32a.91.91,0,0,1,.44-.33l.1,0a.91.91,0,0,0,.58-1.12l-.25-.82a.87.87,0,0,0-.53-.59l-2.61-1-.24-.06-1.05-.13H34a13.76,13.76,0,0,0-2.17.29,7.5,7.5,0,0,0-1.2,3.63A2.66,2.66,0,0,0,31.8,40.22Z"/><path class="cls-9" d="M31.58,42.6a6.41,6.41,0,0,0,2.71-.93.17.17,0,0,1,.12-.05h.41l.08,0c.21.09,1.38.55,2.06-.17,0,0,.34-.07.45,0s-.76,1.48-2.76,2A4.06,4.06,0,0,1,31.51,43,.19.19,0,0,1,31.58,42.6Z"/><path class="cls-10" d="M58.12,38.1s-.18-6.14,7.35-6.29c0,0,8.18-.25,7.21,7.84,0,0-.22,5.33-8.18,5.64C64.56,45.13,58,45.47,58.12,38.1Z"/><path class="cls-9" d="M63.07,39.84a.9.9,0,0,0,1.23-.14A3.26,3.26,0,0,1,65,39c.14,0,1.35-.53,1.46-.49s.88,1.19,1.21,1.25.95-.88,1.27-1.32a.91.91,0,0,1,.44-.33l.1,0a.91.91,0,0,0,.58-1.12l-.24-.82a.91.91,0,0,0-.54-.59l-2.61-1.05-.24-.06-1-.13h-.12a13.76,13.76,0,0,0-2.17.29,7.5,7.5,0,0,0-1.2,3.63A2.66,2.66,0,0,0,63.07,39.84Z"/><path class="cls-9" d="M62.85,42.22a6.41,6.41,0,0,0,2.71-.93.17.17,0,0,1,.12,0h.41l.08,0c.21.09,1.38.55,2.06-.17,0,0,.34-.07.45,0s-.76,1.48-2.76,2a4.06,4.06,0,0,1-3.14-.55A.19.19,0,0,1,62.85,42.22Z"/><path class="cls-5" d="M44,49.26s4.53,7,6.69-.57a.28.28,0,0,1,.54,0c.38,2.25,1.59,5.55,5.53,1.22"/><path class="cls-5" d="M48.1,52.19a.46.46,0,0,0-.39.42c-.11,1.54-.43,6.73.44,6.88s2.92-.83,3.38-.78,3.17.6,3.68.8.56-7,0-7.31-2.76.63-4.08-1.66a.47.47,0,0,0-.8,0A3.67,3.67,0,0,1,48.1,52.19Z"/><path class="cls-5" d="M49.24,63.52s1.43,1.64,4.65,0"/><path class="cls-11" d="M23.49,43.29S10.53,41.74,9.36,45c0,0-.73,1-.08,1.71a1.6,1.6,0,0,1-.51,2.47A10.85,10.85,0,0,0,5.25,51.7a1.58,1.58,0,0,0,1.18,2.54c1.13,0,1.77.62,2.75,0,0,0-8.88,5.15-5.16,10.55a1.57,1.57,0,0,0,1.79.58c1.9-.64,6-2.66,9.46-8.81a1.42,1.42,0,0,1,.2-.28c.9-1,6.67-7.09,9.87-8.48a1.58,1.58,0,0,0,.81-2.09A3.54,3.54,0,0,0,23.49,43.29Z"/><path class="cls-5" d="M23.29,43s-13-1.57-14.22,1.71c0,0-1.89,2.65,3.16,2.35a.13.13,0,0,1,.06.25c-2.66.95-9.64,3.79-7.46,6.54a.11.11,0,0,0,.09,0,10.83,10.83,0,0,0,4.31-.26.06.06,0,0,1,.06.11C7.08,55.17-.28,60.56,4.37,65.4a.11.11,0,0,0,.11,0c.65-.11,6.12-1.26,10.62-9.28l0,0c.31-.34,8.81-9.54,11.41-8.89"/><path class="cls-11" d="M77.35,43.48s13-1.55,14.14,1.72c0,0,.72,1,.07,1.71a1.6,1.6,0,0,0,.51,2.47,10.8,10.8,0,0,1,3.51,2.52,1.58,1.58,0,0,1-1.18,2.54c-1.12.05-1.77.62-2.75,0,0,0,8.88,5.16,5.16,10.56a1.57,1.57,0,0,1-1.79.57c-1.9-.64-6-2.66-9.46-8.81a1.15,1.15,0,0,0-.2-.29c-.9-1-6.66-7.09-9.86-8.48a1.58,1.58,0,0,1-.8-2.09A3.51,3.51,0,0,1,77.35,43.48Z"/><path class="cls-5" d="M77.55,43.15s13-1.55,14.22,1.73c0,0,1.89,2.65-3.16,2.35-.15,0-.2.2-.06.24,2.66,1,9.63,3.8,7.45,6.56a.12.12,0,0,1-.08,0,10.63,10.63,0,0,1-4.31-.26.06.06,0,0,0-.06.11c2.2,1.45,9.56,6.85,4.91,11.69a.11.11,0,0,1-.11,0c-.66-.11-6.13-1.27-10.62-9.28v0c-.32-.34-8.81-9.55-11.41-8.91"/></g></g></svg>