<svg xmlns="http://www.w3.org/2000/svg" viewBox="0 0 37.59 37.59"><defs><style>.cls-1,.cls-2{fill:#fdbe49;}.cls-2{stroke:#875f2d;}.cls-2,.cls-3{stroke-linecap:round;}.cls-2,.cls-3,.cls-4{stroke-miterlimit:10;}.cls-2,.cls-4{stroke-width:2px;}.cls-3,.cls-4{fill:#fc9d29;stroke:#4d301d;}.cls-3{stroke-width:1.5px;}</style></defs><title>资源 7</title><g id="图层_2" data-name="图层 2"><g id="图层_1-2" data-name="图层 1"><circle class="cls-1" cx="18.62" cy="18.62" r="13.67"/><path class="cls-2" d="M13.27,6.07C14,2.62,17.29.5,20,1.1a5.13,5.13,0,0,1,3.68,5.13"/><path class="cls-2" d="M5.89,13.7c-1.92-3-1.1-6.78,1.22-8.24a5.11,5.11,0,0,1,6.22,1"/><path class="cls-2" d="M6.07,24.32c-3.45-.74-5.57-4-5-6.69A5.11,5.11,0,0,1,6.23,14"/><path class="cls-2" d="M13.7,31.7c-3,1.92-6.78,1.1-8.24-1.22a5.12,5.12,0,0,1,1-6.22"/><path class="cls-2" d="M24.32,31.52c-.74,3.46-4,5.57-6.69,5A5.1,5.1,0,0,1,14,31.37"/><path class="cls-2" d="M31.7,23.89c1.92,3,1.1,6.78-1.22,8.24a5.12,5.12,0,0,1-6.22-1"/><path class="cls-2" d="M31.52,13.27c3.46.74,5.57,4,5,6.69a5.12,5.12,0,0,1-5.12,3.68"/><path class="cls-2" d="M23.89,5.89c3-1.92,6.78-1.1,8.24,1.22a5.11,5.11,0,0,1-1,6.22"/><line class="cls-3" x1="12.95" y1="11.81" x2="15.17" y2="14.49"/><line class="cls-3" x1="9.18" y1="17.62" x2="12.65" y2="17.94"/><line class="cls-3" x1="11.59" y1="25.35" x2="14.27" y2="23.12"/><line class="cls-3" x1="17.68" y1="27.48" x2="17.93" y2="24.74"/><line class="cls-3" x1="23.99" y1="26.14" x2="21.77" y2="23.46"/><line class="cls-3" x1="27.76" y1="20.34" x2="24.29" y2="20.02"/><line class="cls-3" x1="25.92" y1="13.74" x2="23.24" y2="15.96"/><line class="cls-3" x1="20.12" y1="9.97" x2="19.79" y2="13.44"/><circle class="cls-4" cx="18.33" cy="18.98" r="5.98"/></g></g></svg>