<svg xmlns="http://www.w3.org/2000/svg" viewBox="0 0 41.13 40.8"><defs><style>.cls-1{fill:#ffbbe4;}.cls-1,.cls-2{stroke:#3f3425;stroke-miterlimit:10;stroke-width:2px;}.cls-2{fill:#fecf2f;}</style></defs><title>资源 6</title><g id="图层_2" data-name="图层 2"><g id="图层_1-2" data-name="图层 1"><path class="cls-1" d="M18.11,15.51S10.62.62,17.23,1.05a.94.94,0,0,1,.2,0,4,4,0,0,1,2,2.42.36.36,0,0,0,.69-.06C20.48,2.06,21.15.75,23,1s2,2,2,3a.36.36,0,0,0,.63.24C26.5,3.43,27.8,2.35,29,2.73c2,.61,5.66,3.16-5,14.49a.36.36,0,0,1-.27.12C23,17.33,19,17.2,18.11,15.51Z"/><path class="cls-1" d="M15.28,21.41s-16.48,2.52-14-3.63a1.14,1.14,0,0,1,.09-.19,4,4,0,0,1,2.93-1.17.36.36,0,0,0,.16-.67C3.21,15,2.18,14,3,12.28s2.53-1.32,3.48-1a.37.37,0,0,0,.43-.53c-.57-1-1.19-2.61-.45-3.66,1.19-1.67,4.76-4.4,12.25,9.2a.33.33,0,0,1,0,.29C18.5,17.37,17.14,21.14,15.28,21.41Z"/><path class="cls-1" d="M20,25.93s-2.69,16.45-7.79,12.22a2.11,2.11,0,0,1-.15-.15,4,4,0,0,1-.21-3.14.36.36,0,0,0-.59-.36c-1.09.92-2.4,1.58-3.73.26s-.47-2.82.11-3.64a.36.36,0,0,0-.37-.56c-1.16.22-2.85.32-3.62-.71C2.44,28.21.94,24,16.19,21a.37.37,0,0,1,.29.06C17.16,21.61,20.32,24.07,20,25.93Z"/><path class="cls-1" d="M25.77,22.82S40.58,30.47,35,34a1.5,1.5,0,0,1-.18.09,4,4,0,0,1-3.06-.77.36.36,0,0,0-.52.45c.54,1.32.76,2.77-.91,3.63s-2.83-.42-3.42-1.22a.36.36,0,0,0-.65.17c-.15,1.17-.58,2.81-1.79,3.22-1.94.66-6.44.77-4.51-14.64a.37.37,0,0,1,.15-.25C20.78,24.2,24.1,22,25.77,22.82Z"/><path class="cls-1" d="M24.59,16.39S36.44,4.66,38.08,11.08a2,2,0,0,1,0,.2A4,4,0,0,1,36.43,14a.37.37,0,0,0,.27.64c1.42-.11,2.87.13,3.17,2s-1.27,2.55-2.22,2.87a.37.37,0,0,0,0,.68c1.06.5,2.49,1.41,2.51,2.69,0,2.05-1.26,6.36-15.32-.24a.36.36,0,0,1-.2-.22C24.36,21.55,23.25,17.7,24.59,16.39Z"/><circle class="cls-2" cx="20.75" cy="20.41" r="4.69"/></g></g></svg>