<svg xmlns="http://www.w3.org/2000/svg" viewBox="0 0 44.7 40.55"><defs><style>.cls-1{fill:#9ea6f5;stroke:#4c312f;stroke-width:1.3px;}.cls-1,.cls-2,.cls-3{stroke-miterlimit:10;}.cls-2{fill:#fbf7f4;stroke:#4e312d;}.cls-3{fill:#f7a500;stroke:#502101;stroke-linecap:round;stroke-width:1.5px;}</style></defs><title>资源 5</title><g id="图层_2" data-name="图层 2"><g id="图层_1-2" data-name="图层 1"><path class="cls-1" d="M13.89.89a1.06,1.06,0,0,0-1.72.66c-.24,1.61-.63,3.73-1,4.15S6.05,16,14.71,16.69c7.69.62,8-4.43,8.33-5.58a4,4,0,0,0,.11-.41c.19-1.09,2.3-5.46-5.09-7.38C18.06,3.32,16.63,3.08,13.89.89Z"/><path class="cls-1" d="M1.33,17.91a1.06,1.06,0,0,0-.28,1.82c1.27,1,2.91,2.41,3.07,3,.21.73,6.38,9.55,11.31,2.4,4.38-6.35.16-9.14-.67-10a2.83,2.83,0,0,0-.3-.3c-.85-.71-3.58-4.73-8.94.71C5.52,15.51,4.6,16.63,1.33,17.91Z"/><path class="cls-1" d="M9.79,37.3a1.06,1.06,0,0,0,1.43,1.15c1.53-.59,3.56-1.31,4.12-1.18.74.19,11.46-.74,7.73-8.58-3.31-7-7.84-4.71-9-4.43l-.41.11c-1,.38-5.88.74-3.85,8.1C9.81,32.47,10.32,33.83,9.79,37.3Z"/><path class="cls-1" d="M30.81,39.66A1.06,1.06,0,0,0,32.53,39c.25-1.62.64-3.73,1-4.15s5.08-10.3-3.58-11c-7.69-.62-8,4.43-8.33,5.57a2.86,2.86,0,0,0-.1.42c-.19,1.09-2.31,5.46,5.08,7.38C26.64,37.23,28.08,37.47,30.81,39.66Z"/><path class="cls-1" d="M43.37,22.64a1.06,1.06,0,0,0,.29-1.82c-1.28-1-2.92-2.41-3.08-3-.21-.73-6.37-9.55-11.3-2.4-4.38,6.35-.16,9.14.66,10a3,3,0,0,0,.31.3c.85.71,3.57,4.73,8.93-.71C39.18,25,40.11,23.91,43.37,22.64Z"/><path class="cls-1" d="M34.91,3.25A1.06,1.06,0,0,0,33.48,2.1c-1.52.59-3.55,1.31-4.11,1.18-.74-.19-11.46.74-7.73,8.58,3.31,7,7.83,4.71,9,4.43l.41-.11c1-.39,5.89-.74,3.85-8.1C34.89,8.08,34.38,6.72,34.91,3.25Z"/><path class="cls-2" d="M31.66,18.67l-.07,0c2.31-1.18,2-3.82,1.87-4.33a.84.84,0,0,0-.05-.17c-1.61-3.79-5.74-1.87-5.74-1.87l-.06,0c.79-2.46-1.32-4.08-1.74-4.38l-.16-.08c-3.27-1.32-4.88,1.63-5.27,2.5a4.07,4.07,0,0,0-4.12-1.57l-.21.06c-3.77,1.62-1.85,5.73-1.85,5.73a.64.64,0,0,0,.09.21c-2.67-1.15-4.44,1.15-4.75,1.6a1.19,1.19,0,0,0-.09.15c-1.53,3.82,2.74,5.38,2.74,5.38l.07,0c-2.31,1.18-2,3.82-1.87,4.32a.84.84,0,0,0,.05.17c1.61,3.79,5.74,1.87,5.74,1.87l.06,0c-.79,2.47,1.32,4.09,1.74,4.38a.8.8,0,0,0,.16.08C22,34.27,23.58,30,23.58,30s0-.05,0-.07c1.18,2.31,3.82,2,4.33,1.87l.17-.05C31.88,30.13,30,26,30,26a.21.21,0,0,0,0-.07c2.47.8,4.09-1.31,4.38-1.74a.6.6,0,0,0,.09-.15C35.94,20.23,31.66,18.67,31.66,18.67Z"/><circle class="cls-3" cx="21.96" cy="20.29" r="4.92"/></g></g></svg>