<svg xmlns="http://www.w3.org/2000/svg" viewBox="0 0 40.76 40.24"><defs><style>.cls-1{fill:#978df7;}.cls-1,.cls-2,.cls-3,.cls-4,.cls-5{stroke:#190e03;}.cls-1,.cls-2,.cls-3,.cls-4,.cls-5,.cls-7{stroke-linecap:round;}.cls-1,.cls-2,.cls-3,.cls-4,.cls-5,.cls-7,.cls-8{stroke-miterlimit:10;}.cls-2{fill:#7bd9ef;}.cls-3{fill:#96d354;}.cls-4{fill:#f9cc5d;}.cls-5{fill:#f98c9b;}.cls-6{fill:#fcfcfc;}.cls-7{fill:#fc9d29;stroke-width:1.5px;}.cls-7,.cls-8{stroke:#4d301d;}.cls-8{fill:#f9cfa2;}</style></defs><title>资源 4</title><g id="图层_2" data-name="图层 2"><g id="图层_1-2" data-name="图层 1"><path class="cls-1" d="M20.4,19.44s-4.75,14.28-13.74,13a3.62,3.62,0,0,1-2.85-5.16,2,2,0,0,1,1.2-1"/><path class="cls-1" d="M20.38,19.48S4.93,12.63.71,22.39a2.62,2.62,0,0,0,.83,3.12c1,.74,2.4,1.43,3.46.78"/><path class="cls-2" d="M20.35,19.45s12.11,8.94,8.1,17.09a3.61,3.61,0,0,1-5.78,1.11,2,2,0,0,1-.62-1.46"/><path class="cls-2" d="M20.38,19.48S9.09,32.06,17.07,39.09a2.6,2.6,0,0,0,3.22.17c1-.74,2.11-1.84,1.81-3"/><path class="cls-3" d="M20.35,19.51s12.23-8.76,18.75-2.43a3.61,3.61,0,0,1-.73,5.84,2,2,0,0,1-1.58.14"/><path class="cls-3" d="M20.38,19.48S28.86,34.11,38,28.69a2.61,2.61,0,0,0,1.16-3c-.39-1.2-1.1-2.57-2.34-2.66"/><path class="cls-4" d="M20.4,19.53S15.85,5.18,23.88.94a3.61,3.61,0,0,1,5.33,2.5A2,2,0,0,1,28.86,5"/><path class="cls-4" d="M20.38,19.48S36.92,16,34.59,5.57a2.59,2.59,0,0,0-2.5-2c-1.27,0-2.79.24-3.26,1.4"/><path class="cls-5" d="M20.43,19.48s-15-.1-16.6-9a3.61,3.61,0,0,1,4-4.3,2,2,0,0,1,1.37.81"/><path class="cls-5" d="M20.38,19.48S22.13,2.67,11.54,1.67A2.61,2.61,0,0,0,8.83,3.43c-.39,1.2-.62,2.72.33,3.52"/><ellipse class="cls-6" cx="14.49" cy="12.78" rx="2.91" ry="3.95" transform="translate(-4.79 13.99) rotate(-45)"/><ellipse class="cls-6" cx="12.22" cy="23.06" rx="3.95" ry="2.91" transform="translate(-9.14 8.06) rotate(-27)"/><ellipse class="cls-6" cx="21.3" cy="28.4" rx="2.91" ry="3.95" transform="translate(-4.18 3.68) rotate(-9)"/><ellipse class="cls-6" cx="29.18" cy="21.41" rx="2.91" ry="3.95" transform="translate(3.46 46.88) rotate(-81)"/><ellipse class="cls-6" cx="24.97" cy="11.76" rx="3.95" ry="2.91" transform="translate(3.16 28.67) rotate(-63)"/><line class="cls-7" x1="26.12" y1="9.67" x2="23.33" y2="14.27"/><line class="cls-7" x1="12.86" y1="11.04" x2="16.37" y2="15.12"/><line class="cls-7" x1="10.06" y1="24.08" x2="15.03" y2="22"/><line class="cls-7" x1="21.6" y1="30.76" x2="21.15" y2="25.4"/><line class="cls-7" x1="31.52" y1="21.86" x2="26.28" y2="20.62"/><circle class="cls-8" cx="20.49" cy="19.44" r="7.4"/></g></g></svg>