<svg xmlns="http://www.w3.org/2000/svg" viewBox="0 0 42.21 39.39"><defs><style>.cls-1,.cls-2{fill:#96d354;}.cls-1,.cls-2,.cls-3,.cls-4{stroke:#502101;stroke-linecap:round;stroke-miterlimit:10;}.cls-2,.cls-3,.cls-4{stroke-width:1.5px;}.cls-3{fill:#f7e0b7;}.cls-4{fill:#f7a500;}</style></defs><title>资源 2</title><g id="图层_2" data-name="图层 2"><g id="图层_1-2" data-name="图层 1"><path class="cls-1" d="M36.16,33.9s-6.87,6.69-11.84,4.58a1.73,1.73,0,0,1-.23-3.14,1.7,1.7,0,0,1,1-.36"/><path class="cls-1" d="M36.14,33.92S28.9,27.87,23.63,32.3a1.31,1.31,0,0,0-.39,1.75,1.86,1.86,0,0,0,1.83,1"/><path class="cls-1" d="M34.45,29.7S30.86,22.06,34,18.53a1.52,1.52,0,0,1,2.68.71,1.48,1.48,0,0,1,0,.93"/><path class="cls-1" d="M34.44,29.67s7.11-4.29,4.94-9.94A1.15,1.15,0,0,0,38,18.9a1.63,1.63,0,0,0-1.32,1.25"/><path class="cls-2" d="M11.84,7.83s20.3,16.41,25.52,21.34,4.66,6.26,2.68,8S8,13.28,8.82,11.87,8.59,8.59,11.84,7.83Z"/><path class="cls-3" d="M6.91,9.32s-2.36-5.08,2.37-7c0,0,4.2-1,5.6,2.81s.79,9.46.79,9.46S7.44,11.17,6.91,9.32Z"/><path class="cls-3" d="M4.48,18.23S-.71,16.34,1.16,11.7a.5.5,0,0,1,.1-.19C1.64,11,3.83,8.1,7.14,9.62a22.81,22.81,0,0,1,6.43,5.18c.41.46.07.9-.34,1.41C11.66,18.15,5.77,18.94,4.48,18.23Z"/><path class="cls-3" d="M9.32,26s-5,2.34-7-2.26l-.06-.2c-.12-.66-.59-4.24,2.83-5.51a22.92,22.92,0,0,1,8.2-.88c.62,0,.69.59.76,1.24C14.35,20.85,10.74,25.58,9.32,26Z"/><path class="cls-3" d="M18.23,28.05s-1.89,5.19-6.53,3.32l-.19-.1C11,30.89,8.1,28.7,9.62,25.38A22.9,22.9,0,0,1,14.8,19c.46-.42.9-.07,1.41.34C18.15,20.86,18.94,26.76,18.23,28.05Z"/><path class="cls-3" d="M26,23.2s2.34,5-2.26,7a.76.76,0,0,1-.2.06c-.66.12-4.24.59-5.51-2.82a23,23,0,0,1-.88-8.21c0-.62.59-.69,1.24-.76C20.85,18.18,25.58,21.79,26,23.2Z"/><path class="cls-3" d="M28.05,14.3s5.19,1.89,3.32,6.52a1.14,1.14,0,0,1-.1.19c-.38.55-2.57,3.41-5.89,1.89A22.55,22.55,0,0,1,19,17.72c-.42-.46-.07-.9.34-1.41C20.86,14.37,26.76,13.58,28.05,14.3Z"/><path class="cls-3" d="M23.2,6.54s5-2.33,7,2.27a.66.66,0,0,1,.06.2c.12.66.59,4.23-2.82,5.5a23,23,0,0,1-8.21.88c-.62,0-.69-.59-.76-1.24C18.18,11.67,21.79,7,23.2,6.54Z"/><path class="cls-3" d="M14.3,4.48s1.89-5.19,6.52-3.32a.5.5,0,0,1,.19.1c.55.38,3.41,2.57,1.89,5.88a22.47,22.47,0,0,1-5.18,6.43c-.46.41-.9.07-1.41-.34C14.37,11.66,13.58,5.77,14.3,4.48Z"/><circle class="cls-4" cx="16.26" cy="16.26" r="5.98"/></g></g></svg>