<svg xmlns="http://www.w3.org/2000/svg" viewBox="0 0 33.76 36.75"><defs><style>.cls-1{fill:none;}.cls-1,.cls-2,.cls-3{stroke:#5d2632;stroke-miterlimit:10;}.cls-1,.cls-2{stroke-width:2px;}.cls-2{fill:#f16dc3;}.cls-3{fill:#fdd236;stroke-width:1.5px;}</style></defs><title>资源 11</title><g id="图层_2" data-name="图层 2"><g id="图层_1-2" data-name="图层 1"><polygon class="cls-1" points="14.42 19 16.19 20.82 18.64 20.2 19.34 17.76 17.57 15.94 15.11 16.56 14.42 19"/><path class="cls-2" d="M24.37,18.49c11.6-3.15,7.79-8.39,7.79-8.39C29,7,24.13,9.47,20.73,11.94,23.8.32,17.35,1,17.35,1c-4.27,1.16-4.56,6.64-4.12,10.82C4.7,3.36,2.07,9.29,2.07,9.29c-1.13,4.28,3.47,7.27,7.31,9-11.6,3.15-7.78,8.39-7.78,8.39,3.15,3.12,8,.64,11.43-1.84C10,36.43,16.41,35.75,16.41,35.75c4.27-1.17,4.56-6.64,4.11-10.82,8.54,8.46,11.17,2.54,11.17,2.54C32.82,23.19,28.22,20.2,24.37,18.49Zm-5-.73-.7,2.44-2.45.62L14.42,19l.69-2.44,2.46-.62Z"/><circle class="cls-3" cx="16.88" cy="18.38" r="6.78"/></g></g></svg>