<svg xmlns="http://www.w3.org/2000/svg" viewBox="0 0 37.51 36.42"><defs><style>.cls-1{fill:#ef4141;}.cls-1,.cls-2,.cls-3{stroke:#502101;stroke-width:1.5px;}.cls-1,.cls-3{stroke-miterlimit:10;}.cls-2{fill:#070200;stroke-linecap:round;stroke-linejoin:round;}.cls-3{fill:#fdd036;}</style></defs><title>资源 8</title><g id="图层_2" data-name="图层 2"><g id="图层_1-2" data-name="图层 1"><path class="cls-1" d="M22.7,17.65a4,4,0,0,0-6.83-3.44A4,4,0,0,0,18.18,21a4.91,4.91,0,0,0,.55,0,3.49,3.49,0,0,0,.65-.06A4,4,0,0,0,22.7,17.65Z"/><path class="cls-1" d="M35.54,16.77a7.45,7.45,0,0,0-5-3.76,16.37,16.37,0,0,0,1.31-1.8C33.5,8.66,32.41-.8,23.67,1a7.46,7.46,0,0,0-5.13,3.61,16.82,16.82,0,0,0-1.3-1.81C15.32.41,6-1.48,5,7.38a7.49,7.49,0,0,0,1.84,6,18.38,18.38,0,0,0-2.12.68c-2.84,1.09-7.51,9.39.59,13.1a7.49,7.49,0,0,0,6.28.09,15.15,15.15,0,0,0,0,2.23c.16,3,6.6,10.05,12.63,3.48a7.44,7.44,0,0,0,2-5.93,16.64,16.64,0,0,0,2.12.69C31.27,28.5,39.93,24.54,35.54,16.77Zm-16.81,4.3a4.91,4.91,0,0,1-.55,0,4,4,0,0,1,.55-8,4.09,4.09,0,0,1,1.81.43A4,4,0,0,1,19.38,21,3.49,3.49,0,0,1,18.73,21.07Z"/><line class="cls-2" x1="15.61" y1="14.32" x2="12.64" y2="10.88"/><line class="cls-2" x1="16.41" y1="9" x2="17.13" y2="13.49"/><line class="cls-2" x1="15.13" y1="19.06" x2="10.94" y2="20.83"/><line class="cls-2" x1="10.31" y1="16.65" x2="14.81" y2="17.36"/><line class="cls-2" x1="19.48" y1="20.98" x2="19.87" y2="25.51"/><line class="cls-2" x1="15.71" y1="24.82" x2="17.77" y2="20.76"/><line class="cls-2" x1="22.66" y1="17.43" x2="27.09" y2="18.47"/><line class="cls-2" x1="25.14" y1="22.21" x2="21.92" y2="18.99"/><line class="cls-2" x1="20.26" y1="13.32" x2="22.62" y2="9.42"/><line class="cls-2" x1="25.58" y1="12.43" x2="21.52" y2="14.5"/><path class="cls-3" d="M20.56,13.45A4,4,0,1,0,18.21,21a4.9,4.9,0,0,0,.54,0A3.42,3.42,0,0,0,19.4,21a4,4,0,0,0,3.33-3.36,4.07,4.07,0,0,0,.05-.61A4,4,0,0,0,20.56,13.45Z"/></g></g></svg>