<svg xmlns="http://www.w3.org/2000/svg" viewBox="0 0 36.27 50.97"><defs><style>.cls-1{fill:#bccd55;}.cls-2{fill:#94a81a;}.cls-3,.cls-4,.cls-8{fill:none;}.cls-3,.cls-8{stroke:#502101;}.cls-3,.cls-4,.cls-5,.cls-8{stroke-miterlimit:10;}.cls-3,.cls-4,.cls-5{stroke-width:1.5px;}.cls-4,.cls-5{stroke:#5d2632;}.cls-5{fill:#fdd236;}.cls-6{fill:#e886ac;}.cls-7{fill:#ffb6e4;}.cls-8{stroke-linecap:round;stroke-width:2px;}</style></defs><title>资源 3</title><g id="图层_2" data-name="图层 2"><g id="图层_1-2" data-name="图层 1"><path class="cls-1" d="M20,37.47s.43-6.86,9.71-13.57c.72,0,4-5.28,4.72-5.85s5.28,20.6-12.14,24.58C22.32,42.63,18.29,42.43,20,37.47Z"/><path class="cls-1" d="M.83,15.34s16.81,14.89,16,21.19,0,5.61,0,5.61S-.57,40.21.83,15.34Z"/><path class="cls-2" d="M21.71,37.39s.57-5.47,8.42-10.53c.59,0,3.46-4.09,4.07-4.52S37.87,39,23.42,41.59C23.42,41.59,20.11,41.3,21.71,37.39Z"/><path class="cls-3" d="M20,37.47s.43-6.86,9.71-13.57c.72,0,4-5.28,4.72-5.85s5.28,20.6-12.14,24.58C22.32,42.63,18.29,42.43,20,37.47Z"/><path class="cls-2" d="M3.26,22.21S16.59,33.25,16,37.93s0,4.16,0,4.16S2.14,40.66,3.26,22.21Z"/><path class="cls-4" d="M.83,15.53s16.81,14.89,16,21.2,0,5.6,0,5.6S-.57,40.41.83,15.53Z"/><path class="cls-5" d="M18.73,22.93A1.78,1.78,0,0,0,17,24.74c-.08,4.84-.26,17.77,0,19s.41,4.37,2.19,6.06a1.69,1.69,0,0,0,2.81-1A34.1,34.1,0,0,0,22,39.38c-.58-5.33-1.36-11.67-1.49-14.7a1.79,1.79,0,0,0-1.73-1.75Z"/><path class="cls-6" d="M15.75,22.45c-1-.54-6.93-4.23-5.24-14.09a1.42,1.42,0,0,0,0-.2c.1-.75.84-5.71,4.06-7.09a.77.77,0,0,1,.66,0c.58.3,1.53,1.26,1,4.27-.16,1,.72,1.29,1.51,1.11,1.13-.25.83-.92,1.58-2.39C21.21.5,22.29,2.37,22.29,2.37a14.25,14.25,0,0,1,1,4.38.36.36,0,0,0,.63.26C25,5.66,26.68,3.8,27.26,4c2.32.82,2.26,6,.08,9.84S23.28,24.64,16,22.54Z"/><path class="cls-7" d="M14.9,21.83c-.83-.49-5.7-3.9-4.18-13.23,0-.06,0-.12,0-.19.09-.7.76-5.39,3.45-6.73a.59.59,0,0,1,.55,0c.47.28,1.25,1.17.79,4-.14.89.59,1.2,1.24,1,.94-.25.71-.87,1.35-2.27,1.55-3.41,2.42-1.66,2.42-1.66a14.62,14.62,0,0,1,.79,4.13c0,.33.33.48.51.23.94-1.29,2.33-3.06,2.81-2.87,1.92.75,1.81,5.67-.05,9.28s-3.49,10.24-9.54,8.33A.71.71,0,0,1,14.9,21.83Z"/><path class="cls-8" d="M15.66,22.45c-1-.55-7.18-4.25-5.47-14.12,0-.06,0-.12.05-.19.1-.75.85-5.71,4.16-7.08a.83.83,0,0,1,.69,0c.6.3,1.59,1.26,1.07,4.28-.16.94.75,1.28,1.56,1.11,1.17-.25.87-.91,1.64-2.38,1.87-3.59,3-1.71,3-1.71a13.91,13.91,0,0,1,1.06,4.39.37.37,0,0,0,.65.25c1.13-1.35,2.84-3.19,3.44-3,2.4.83,2.36,6,.12,9.84s-4.16,10.78-11.73,8.65Z"/></g></g></svg>